<svg width="40" height="47" viewBox="0 0 40 47" fill="none" xmlns="http://www.w3.org/2000/svg">
<path d="M39.004 21.1036C38.941 16.7268 36.7386 13.5262 32.7436 12.0212C30.5722 11.2007 29.6238 10.1014 28.9426 7.93136C27.3805 2.95574 22.2193 -0.0356592 17.1679 0.658734C12.4408 1.30181 8.73567 4.81969 7.77183 9.63278C7.5408 10.8002 7.16563 11.5804 5.9496 12.1794C2.12899 14.0609 0.0109792 17.1307 0.0740947 21.5517C0.139929 26.2317 0.233137 30.9159 0.088327 35.5902C-0.0762508 40.8121 4.00091 44.9856 8.53787 45.8616C12.1898 46.5649 15.8934 45.9685 18.2718 46.1166C22.695 46.1062 25.8125 46.1894 28.9275 46.0704C34.2075 45.8683 38.9467 41.4128 39.0153 36.5681C39.0915 31.4096 39.0793 26.2534 39.004 21.1036ZM11.0095 9.73887C11.5239 8.05794 12.5721 6.59041 13.9953 5.55858C15.4185 4.52675 17.1392 3.9868 18.8967 4.02053C22.3344 4.08612 25.405 6.57905 26.3292 9.93854C26.565 10.7974 26.2599 10.9203 25.5606 10.9198C23.2436 10.9126 20.9267 10.9308 18.6224 10.9362C16.4066 10.9415 14.1991 10.9193 11.9729 10.9667C11.0188 10.9816 10.7001 10.7464 11.0095 9.73887ZM35.4134 35.6541C35.3192 40.3577 31.5374 42.6267 28.2475 42.6766C25.324 42.7193 22.3941 42.6904 19.4664 42.6974L19.4663 42.6742C16.5863 42.681 13.7077 42.6878 10.8305 42.6946C7.24977 42.7031 3.63073 39.8702 3.77407 35.4635C3.93109 30.606 3.78057 25.7408 3.82383 20.8772C3.85767 17.3743 6.33652 14.5881 9.83667 14.3587C16.2894 13.9369 22.7532 13.7531 29.2146 14.2918C32.737 14.5846 35.2228 17.378 35.3175 20.9291C35.4429 25.8407 35.5219 30.7419 35.4134 35.6541Z" fill="white"/>
</svg>
