<svg width="17" height="15" viewBox="0 0 17 15" fill="none" xmlns="http://www.w3.org/2000/svg">
<g filter="url(#filter0_d_584_266)">
<path d="M3.11716 5.72096C3.99966 5.71887 4.71546 4.99968 4.71337 4.11718C4.71128 3.23468 3.99209 2.51888 3.10959 2.52097C2.22709 2.52306 1.51129 3.24225 1.51338 4.12475C1.51547 5.00725 2.23466 5.72305 3.11716 5.72096ZM14.3171 5.69447C15.1996 5.69238 15.9154 4.97318 15.9133 4.09069C15.9112 3.20819 15.1921 2.49239 14.3096 2.49448C13.4271 2.49656 12.7113 3.21576 12.7133 4.09826C12.7154 4.98075 13.4346 5.69656 14.3171 5.69447ZM15.119 6.49257L13.519 6.49636C13.079 6.4974 12.6819 6.67584 12.3926 6.96402C13.4014 7.51414 14.1188 8.50995 14.2766 9.69458L15.9266 9.69067C16.3691 9.68963 16.7257 9.33128 16.7247 8.88878L16.7228 8.08878C16.7207 7.20629 16.0015 6.49049 15.119 6.49257ZM8.71903 6.50771C10.2665 6.50405 11.5161 5.24859 11.5124 3.7011C11.5087 2.1536 10.2533 0.904067 8.70579 0.907727C7.15829 0.911388 5.90876 2.16685 5.91242 3.71434C5.91608 5.26184 7.17154 6.51137 8.71903 6.50771ZM10.6409 7.30317L10.4334 7.30366C9.91402 7.55489 9.33687 7.70625 8.72187 7.70771C8.10687 7.70916 7.53152 7.56052 7.00843 7.31176L6.80093 7.31225C5.21094 7.31601 3.92399 8.60906 3.92775 10.1991L3.92946 10.9191C3.93102 11.5816 4.46979 12.1178 5.13229 12.1162L12.3323 12.0992C12.9948 12.0976 13.531 11.5588 13.5294 10.8963L13.5277 10.1763C13.524 8.58635 12.2309 7.29941 10.6409 7.30317ZM5.04765 6.9814C4.75697 6.69458 4.35905 6.51803 3.91905 6.51907L2.31905 6.52285C1.43656 6.52494 0.720754 7.24413 0.722842 8.12663L0.724734 8.92663C0.725781 9.36913 1.08413 9.72578 1.52662 9.72474L3.17412 9.72084C3.32882 8.53547 4.04145 7.53628 5.04765 6.9814Z" fill="#60626E"/>
<path d="M4.21337 4.11836C4.2148 4.72472 3.72233 5.21953 3.11598 5.22096C2.50962 5.2224 2.01481 4.72992 2.01338 4.12357C2.01194 3.51721 2.50442 3.0224 3.11077 3.02097C3.71713 3.01953 4.21194 3.51201 4.21337 4.11836ZM15.4133 4.09187C15.4148 4.69823 14.9223 5.19303 14.3159 5.19447C13.7096 5.1959 13.2148 4.70343 13.2133 4.09707C13.2119 3.49072 13.7044 2.99591 14.3107 2.99448C14.9171 2.99304 15.4119 3.48551 15.4133 4.09187ZM14.6906 9.19359C14.4796 8.32594 13.9988 7.56946 13.3408 7.0113C13.3991 7.0016 13.4591 6.9965 13.5202 6.99636L15.1202 6.99257C15.7266 6.99114 16.2214 7.48361 16.2228 8.08997L16.2247 8.88996C16.2251 9.05632 16.0918 9.19028 15.9254 9.19067L14.6906 9.19359ZM11.0124 3.70228C11.0154 4.97363 9.98921 6.00471 8.71785 6.00771C7.4465 6.01072 6.41543 4.98451 6.41242 3.71316C6.40941 2.44181 7.43562 1.41073 8.70697 1.40773C9.97832 1.40472 11.0094 2.43092 11.0124 3.70228ZM8.72306 8.20771C9.37864 8.20616 9.99273 8.05427 10.5453 7.8034L10.6421 7.80317C11.956 7.80006 13.0246 8.86368 13.0277 10.1775L13.0294 10.8975C13.0303 11.2839 12.7174 11.5983 12.3311 11.5992L5.13111 11.6162C4.74475 11.6171 4.43037 11.3042 4.42945 10.9179L4.42775 10.1979C4.42464 8.88402 5.48826 7.81536 6.80212 7.81225L6.89934 7.81202C7.4542 8.05996 8.06678 8.20926 8.72306 8.20771ZM3.92023 7.01906C3.98137 7.01892 4.0413 7.02374 4.09968 7.03315C3.44417 7.59453 2.96664 8.35333 2.75844 9.22182L1.52544 9.22474C1.35908 9.22513 1.22513 9.0918 1.22473 8.92545L1.22284 8.12545C1.22141 7.51909 1.71388 7.02428 2.32024 7.02285L3.92023 7.01906Z" stroke="#60626E"/>
</g>
<defs>
<filter id="filter0_d_584_266" x="-3.27716" y="0.907722" width="24.0018" height="19.2085" filterUnits="userSpaceOnUse" color-interpolation-filters="sRGB">
<feFlood flood-opacity="0" result="BackgroundImageFix"/>
<feColorMatrix in="SourceAlpha" type="matrix" values="0 0 0 0 0 0 0 0 0 0 0 0 0 0 0 0 0 0 127 0" result="hardAlpha"/>
<feOffset dy="4"/>
<feGaussianBlur stdDeviation="2"/>
<feComposite in2="hardAlpha" operator="out"/>
<feColorMatrix type="matrix" values="0 0 0 0 0 0 0 0 0 0 0 0 0 0 0 0 0 0 0.25 0"/>
<feBlend mode="normal" in2="BackgroundImageFix" result="effect1_dropShadow_584_266"/>
<feBlend mode="normal" in="SourceGraphic" in2="effect1_dropShadow_584_266" result="shape"/>
</filter>
</defs>
</svg>
