<svg width="17" height="17" viewBox="0 0 17 17" fill="none" xmlns="http://www.w3.org/2000/svg">
<g clip-path="url(#clip0_584_265)">
<path d="M4.21337 6.11836C4.2148 6.72472 3.72233 7.21953 3.11598 7.22096C2.50962 7.2224 2.01481 6.72992 2.01338 6.12357C2.01194 5.51721 2.50442 5.0224 3.11077 5.02097C3.71713 5.01953 4.21194 5.51201 4.21337 6.11836ZM15.4133 6.09187C15.4148 6.69823 14.9223 7.19303 14.3159 7.19447C13.7096 7.1959 13.2148 6.70343 13.2133 6.09707C13.2119 5.49072 13.7044 4.99591 14.3107 4.99448C14.9171 4.99304 15.4119 5.48551 15.4133 6.09187ZM14.6906 11.1936C14.4796 10.3259 13.9988 9.56946 13.3408 9.0113C13.3991 9.0016 13.4591 8.9965 13.5202 8.99636L15.1202 8.99257C15.7266 8.99114 16.2214 9.48361 16.2228 10.09L16.2247 10.89C16.2251 11.0563 16.0918 11.1903 15.9254 11.1907L14.6906 11.1936ZM11.0124 5.70228C11.0154 6.97363 9.98921 8.00471 8.71785 8.00771C7.4465 8.01072 6.41543 6.98451 6.41242 5.71316C6.40941 4.44181 7.43562 3.41073 8.70697 3.40773C9.97832 3.40472 11.0094 4.43092 11.0124 5.70228ZM8.72306 10.2077C9.37864 10.2062 9.99273 10.0543 10.5453 9.8034L10.6421 9.80317C11.956 9.80006 13.0246 10.8637 13.0277 12.1775L13.0294 12.8975C13.0303 13.2839 12.7174 13.5983 12.3311 13.5992L5.13111 13.6162C4.74475 13.6171 4.43037 13.3042 4.42945 12.9179L4.42775 12.1979C4.42464 10.884 5.48826 9.81536 6.80212 9.81225L6.89934 9.81202C7.4542 10.06 8.06678 10.2093 8.72306 10.2077ZM3.92023 9.01906C3.98137 9.01892 4.0413 9.02374 4.09968 9.03315C3.44417 9.59453 2.96664 10.3533 2.75844 11.2218L1.52544 11.2247C1.35908 11.2251 1.22513 11.0918 1.22473 10.9254L1.22284 10.1254C1.22141 9.51909 1.71388 9.02428 2.32024 9.02285L3.92023 9.01906Z" fill="#60626E" stroke="#60626E"/>
</g>
<defs>
<clipPath id="clip0_584_265">
<rect width="16" height="16" fill="white" transform="translate(0.700134 0.526657) rotate(-0.135531)"/>
</clipPath>
</defs>
</svg>
