<svg width="16" height="17" viewBox="0 0 16 17" fill="none" xmlns="http://www.w3.org/2000/svg">
<path d="M15.4224 10.3568L14.0894 9.59121C14.222 8.8659 14.2203 8.12215 14.0842 7.39747L15.4136 6.62557C15.5665 6.53771 15.6348 6.3563 15.5844 6.18767C15.2349 5.07599 14.6419 4.07114 13.8681 3.23547C13.749 3.10763 13.5552 3.07683 13.4054 3.16469L12.076 3.93659C11.5155 3.45666 10.8708 3.08631 10.1734 2.84421L10.1698 1.30984C10.1693 1.13484 10.0471 0.982002 9.87514 0.944908C8.72766 0.691372 7.5527 0.706651 6.46265 0.952981C6.29087 0.990887 6.16935 1.1443 6.16977 1.3193L6.1734 2.8568C5.48024 3.10531 4.83737 3.47871 4.27601 3.95816L2.94607 3.19256C2.79274 3.10542 2.60218 3.13399 2.48374 3.26552C1.71384 4.10172 1.1256 5.10937 0.781362 6.22581C0.728636 6.39468 0.80094 6.57576 0.954271 6.6629L2.28734 7.4285C2.15468 8.15382 2.15643 8.89756 2.29252 9.62224L0.963097 10.3941C0.81018 10.482 0.741859 10.6634 0.792258 10.832C1.14176 11.9437 1.73477 12.9486 2.50862 13.7842C2.62767 13.9121 2.8215 13.9429 2.97129 13.855L4.30072 13.0831C4.86123 13.5631 5.50585 13.9334 6.2033 14.1755L6.20694 15.713C6.20735 15.888 6.32959 16.0408 6.50155 16.0779C7.64903 16.3315 8.824 16.3162 9.91404 16.0699C10.0858 16.032 10.2073 15.8785 10.2069 15.7035L10.2033 14.166C10.8965 13.9175 11.5393 13.5441 12.1007 13.0647L13.4338 13.8303C13.5871 13.9174 13.7776 13.8888 13.8961 13.7573C14.666 12.9211 15.2542 11.9135 15.5985 10.797C15.6449 10.625 15.5757 10.444 15.4224 10.3568ZM8.19269 11.0083C6.81457 11.0116 5.69005 9.89233 5.68679 8.51421C5.68353 7.13609 6.80274 6.01157 8.18086 6.00831C9.55898 6.00505 10.6835 7.12426 10.6868 8.50238C10.69 9.88051 9.57081 11.005 8.19269 11.0083Z" fill="#60626E"/>
</svg>
