<svg width="15" height="17" viewBox="0 0 15 17" fill="none" xmlns="http://www.w3.org/2000/svg">
<path d="M7.67646 16.9418C8.78021 16.9392 9.6734 16.0418 9.67079 14.9371L5.67267 14.9466C5.67529 16.0513 6.57271 16.9444 7.67646 16.9418ZM14.3963 12.2475C13.791 11.6002 12.659 10.6269 12.6515 7.43004C12.6457 5.00192 10.9386 3.0622 8.64189 2.59076L8.64035 1.93951C8.63904 1.38732 8.19049 0.940571 7.63861 0.941877C7.08674 0.943182 6.6403 1.39205 6.64161 1.94424L6.64315 2.59549C4.34866 3.07779 2.65076 5.02556 2.6565 7.45368C2.66406 10.6505 1.53669 11.6292 0.934475 12.2793C0.747452 12.4813 0.664897 12.7225 0.667018 12.9584C0.671668 13.4709 1.07501 13.9574 1.67251 13.956L13.6662 13.9277C14.2637 13.9262 14.6651 13.4378 14.667 12.9253C14.668 12.6893 14.5843 12.4483 14.3963 12.2475Z" fill="#C5C7CD"/>
</svg>
