<svg width="15" height="17" viewBox="0 0 15 17" fill="none" xmlns="http://www.w3.org/2000/svg">
<path d="M14.0626 11.7407L14.0377 1.24077C14.0368 0.825149 13.7016 0.491566 13.286 0.492549L3.036 0.516795C1.37976 0.520713 0.0391893 1.86764 0.0431071 3.52388L0.0667617 13.5239C0.0706795 15.1801 1.4176 16.5207 3.07385 16.5168L13.3238 16.4925C13.7394 16.4915 14.073 16.1564 14.072 15.7407L14.0709 15.2407C14.0703 15.0064 13.9604 14.7941 13.7914 14.657C13.659 14.1761 13.6557 12.8042 13.7858 12.3226C13.9543 12.1879 14.0631 11.9751 14.0626 11.7407ZM4.0459 4.70192C4.04566 4.59879 4.12984 4.51422 4.23296 4.51397L10.8579 4.4983C10.9611 4.49806 11.0456 4.58223 11.0459 4.68536L11.0474 5.31036C11.0476 5.41348 10.9634 5.49806 10.8603 5.4983L4.23533 5.51397C4.1322 5.51422 4.04763 5.43004 4.04738 5.32692L4.0459 4.70192ZM4.05064 6.70191C4.05039 6.59879 4.13457 6.51421 4.23769 6.51397L10.8627 6.4983C10.9658 6.49805 11.0504 6.58223 11.0506 6.68535L11.0521 7.31035C11.0523 7.41348 10.9682 7.49805 10.865 7.4983L4.24006 7.51397C4.13693 7.51421 4.05236 7.43004 4.05211 7.32691L4.05064 6.70191ZM11.9878 14.4957L3.06912 14.5168C2.516 14.5181 2.06806 14.0722 2.06676 13.5191C2.06546 12.9691 2.51439 12.5181 3.06439 12.5168L11.9831 12.4957C11.925 13.0302 11.9272 13.9614 11.9878 14.4957Z" fill="#60626E"/>
</svg>
