<svg width="17" height="17" viewBox="0 0 17 17" fill="none" xmlns="http://www.w3.org/2000/svg">
<g clip-path="url(#clip0_584_269)">
<path d="M8.88695 8.50751C11.0963 8.50228 12.8827 6.70743 12.8775 4.49806C12.8722 2.28869 11.0774 0.502305 8.86802 0.507532C6.65865 0.512758 4.87227 2.30761 4.8775 4.51698C4.88272 6.72635 6.67758 8.51274 8.88695 8.50751ZM11.8831 9.51917L10.4035 15.5039L9.39345 11.2563L10.3893 9.50396L7.38932 9.51105L8.39345 11.2587L7.40351 15.511L5.89561 9.53334C3.66775 9.64486 1.89394 11.4709 1.89927 13.7241L1.90234 15.024C1.9043 15.8522 2.57776 16.5225 3.40589 16.5205L14.4059 16.4945C15.234 16.4925 15.9043 15.8191 15.9023 14.9909L15.8992 13.6909C15.8939 11.4378 14.1115 9.62015 11.8831 9.51917V9.51917Z" fill="#60626E"/>
</g>
<defs>
<clipPath id="clip0_584_269">
<rect width="16" height="16" fill="white" transform="translate(0.868042 0.526455) rotate(-0.135531)"/>
</clipPath>
</defs>
</svg>
