<svg width="12" height="17" viewBox="0 0 12 17" fill="none" xmlns="http://www.w3.org/2000/svg">
<path d="M3.06762 14.7122C3.0684 14.9088 3.12698 15.1012 3.23643 15.2646L3.77239 16.0662C3.86394 16.2032 3.98795 16.3155 4.13338 16.393C4.27881 16.4705 4.44114 16.5109 4.60594 16.5105L6.53437 16.5059C6.69917 16.5055 6.86131 16.4644 7.00637 16.3862C7.15143 16.308 7.27491 16.1951 7.36581 16.0577L7.89797 15.2536C8.0066 15.0896 8.06441 14.8971 8.06417 14.7004L8.06258 13.502L3.06322 13.5138L3.06762 14.7122ZM0.0451756 6.02092C0.0484555 7.40747 0.565509 8.67125 1.41498 9.63581C1.93262 10.2237 2.74303 11.4524 3.0533 12.4898C3.05457 12.4979 3.05552 12.506 3.05679 12.5141L8.06428 12.5023C8.06551 12.4941 8.06643 12.4863 8.06766 12.4779C8.37302 11.439 9.1776 10.2065 9.69246 9.61623C10.5374 8.64767 11.0484 7.38145 11.0451 5.9949C11.0379 2.95147 8.56056 0.491383 5.51496 0.507962C2.32718 0.52519 0.0382988 3.11374 0.0451756 6.02092ZM5.53925 3.50791C4.16081 3.51117 3.04191 4.63539 3.04517 6.01382C3.04582 6.29007 2.8226 6.51435 2.54635 6.515C2.2701 6.51565 2.04582 6.29243 2.04517 6.01618C2.0406 4.08619 3.60689 2.51248 5.53688 2.50792C5.81313 2.50726 6.03741 2.73048 6.03806 3.00673C6.03872 3.28298 5.8155 3.50726 5.53925 3.50791Z" fill="#60626E"/>
</svg>
