<svg width="17" height="11" viewBox="0 0 17 11" fill="none" xmlns="http://www.w3.org/2000/svg">
<path d="M3.93234 2.85197L12.8212 2.83095L12.8338 8.16427L3.94495 8.18529L3.93234 2.85197ZM15.0497 5.49235C15.0515 6.22874 15.6498 6.82427 16.3862 6.82253L16.3925 9.48918C16.3943 10.2256 15.7987 10.8239 15.0623 10.8257L1.72904 10.8572C0.992658 10.8589 0.394303 10.2634 0.392561 9.52703L0.386253 6.86037C1.12264 6.85863 1.71817 6.26028 1.71643 5.52389C1.71469 4.7875 1.11633 4.19197 0.379945 4.19371L0.373637 1.52706C0.371895 0.790668 0.967426 0.192314 1.70381 0.190572L15.0371 0.159032C15.7735 0.15729 16.3719 0.752821 16.3736 1.48921L16.3799 4.15587C15.6435 4.15761 15.048 4.75596 15.0497 5.49235ZM13.7096 2.60662C13.7087 2.23843 13.4095 1.94066 13.0413 1.94154L3.70801 1.96361C3.33982 1.96448 3.04205 2.26366 3.04292 2.63186L3.05659 8.40962C3.05746 8.77781 3.35664 9.07558 3.72483 9.0747L13.0581 9.05263C13.4263 9.05176 13.7241 8.75258 13.7232 8.38438L13.7096 2.60662Z" fill="#60626E"/>
</svg>
